<svg id="Golang--Streamline-Openmoji" viewBox="0 0 72 72" version="1.1" xmlns="http://www.w3.org/2000/svg" height="32" width="32">
  <desc>
    Golang Streamline Emoji: https://streamlinehq.com
  </desc>
  <g id="color" fill="#61b2e4">
    <path transform="rotate(29.998 -7.961 -29.147) scale(.8928)" fill="#61b2e4" stroke="#000000" stroke-linecap="round" stroke-linejoin="round" d="M62.17-4.526c-.6682.4054-1.311.8759-1.932 1.402-3.037 2.58-4.809 5.923-5.32 9.879-.4827 3.664.2445 7.102 2.486 10.1 1.893 2.528 4.394 3.997 7.533 4.389 3.384.4078 6.395-.5808 9.066-2.635 3.24-2.501 5.009-5.846 5.515-9.877.1159-.9189.2571-1.704.1985-2.606 1.515 1.448 3.369 2.376 5.494 2.783 3.089.5782 5.983-.06734 8.704-1.559.7164-.5317 1.495-1.021 2.207-1.629 2.422-2.146 4.098-4.767 4.905-7.87 1.143-4.36.4207-8.272-2.382-11.97-2.02-2.612-4.712-3.933-7.965-4.18-3.574-.259-6.578 1.082-9.283 3.351-3.155 2.648-4.9 5.624-5.419 9.702-.2278 1.758-.1792 3.451.1837 5.063l-9.51 5.44c-.4438.2539-.481.6696-.4673.8978.02983 1.006.2074 2.951.352 4.088.08309.6212.4534.9187 1.073.5608l5.697-3.289c-.0566.5837-.08823 1.076-.1664 1.554-.4592 2.273-1.733 3.952-3.894 4.845-2.52 1.022-5.268.01055-6.661-2.334-1.41-2.374-1.486-4.889-.2283-7.347 1.052-2.064 2.701-3.369 5.09-3.528.7904-.0627 1.302.07371 2.034.3199.6394.2213.6522.1752 1.027-.1986 1.558-1.529 2.622-2.617 4.209-4.163.3031-.2931.3347-.5083.0042-.6717-1.727-1.286-3.666-2.055-5.827-2.185-2.496-.1824-4.72.4519-6.725 1.668zm23.91-6.222c2.355-1.464 5.385-1.1 7.327 1.189.2295.2611.4011.5564.6521.9231 1.318 2.624 1.139 5.247-.494 7.803-1.104 1.7-2.677 2.726-4.71 2.955-2.671.2825-5.14-1.403-5.938-4.012-.9526-3.15-.1872-5.914 2.2-8.119.3037-.2836.626-.5298.9624-.739z"></path>
  </g>
  <g id="line" fill="none" stroke="#000000" stroke-linecap="round" stroke-linejoin="round" stroke-miterlimit="10" stroke-width="2.24">
    <path d="m10.8935055545 40.0624927482 6.6452764915.0426461079" stroke-width="2"></path>
    <path d="m7.575274142 31.8996364395 9.9628532923.0816650882" stroke-width="2"></path>
    <path d="m5.0789301076 35.9737806015 12.4589269177.079403486" stroke-width="2"></path>
    <path fill="none" stroke="#000000" stroke-linecap="round" stroke-linejoin="round" d="M34.4512669333 24.3273034725c-.6976139047.015190076-1.4046473345.0920535457-2.119643277.2216380373-3.4998600671.6392290683-6.3622008673 2.4330739312-8.5231592613 5.2637686375-2.0087358282 2.6175517682-2.981092971 5.6004263497-2.586184592 8.9190342333.3352424267 2.7996414503 1.6133013333 5.0518556478 3.865407526 6.7561161279 2.4344882492 1.825838476 5.203887028 2.4054790628 8.1860518454 2.009427643 3.6215568209-.4875323052 6.482470758-2.2842626933 8.6730411124-5.1751794943.4997863941-.658761662.959410117-1.2027755172 1.316728873-1.9263621379.5250545203 1.795853145 1.5443388442 3.3409611481 3.0057215364 4.6041974416 2.130331385 1.8259122397 4.6561326804 2.618582227 7.4258549777 2.6798071083.7912592035-.0913304436 1.6116854218-.1221126761 2.4336007925-.2744025546 2.8306142973-.5781783406 5.29644629-1.8566224015 7.3055166125-3.8956484845 2.8299574256-2.860961001 4.0176840703-6.2081466061 3.50131524-10.3185011669-.3959438828-2.9212798798-1.8877477799-5.144317269-4.292723208-6.7873498283-2.6478171351-1.7955967323-5.5691053413-2.099635949-8.6734399854-1.5526771936-3.6214513932.6391348613-6.299096816 2.1612662716-8.5206983416 5.0827207674-.96085941 1.2576072118-1.6789912477 2.5883337246-2.1179491491 3.9967258265l-9.7814302993-.0387826697c-.4564816264-.0017840845-.6708020407.3030313525-.7620714797.4855916016-.4259866011.7911575876-1.1568844386 2.3742999993-1.5526053886 3.3179774184-.2130414716.5174028758-.0595126162.9127271763.5793209017.9125705175l5.8730586772-.0000778318c-.3043112195.4260539151-.5485170654.7925830044-.8223246477 1.12728109-1.3696606988 1.5525160743-3.104027044 2.2821340753-5.17352996 2.0079923345-2.4046649337-.3346464565-4.0779429677-2.3433357265-4.108470992-4.7779465697-.0305267912-2.4649700146 1.0333378972-4.4435000652 3.1029802483-5.7826298572 1.734723515-1.1263067137 3.5922521433-1.399267616 5.5104075679-.455821781.6391272882.3043333954.9738082325.6381704572 1.4299003027 1.1552703628.3956036909.4565207405.4260784859.4265896539.882729225.3048669535 1.8871547039-.4867783321 3.1954965975-.8530823809 5.1126625315-1.3400603478.3651897775-.091330158.4856824662-.24361807.303076204-.5174857303-.7612859973-1.765225327-1.9172658902-3.2253357492-3.5301292165-4.2904642227-1.8484964065-1.2551792725-3.8512344176-1.7574701452-5.9443407755-1.712155787zm21.264618091 5.8619092248c2.474383299-.0807608438 4.654708802 1.5531952924 5.1345213282 4.1899134882.0609021098.3043259255.0617698053.6092503984.092158791 1.004823587-.152201143 2.6172044632-1.4614408975 4.5654153268-3.8650109128 5.8127952281-1.6124502985.8216494025-3.2866774242.9128109991-4.9608186693.1823981703-2.191325755-.9738324457-3.3480024068-3.37916117-2.8004312664-5.7526536218.6695217456-2.860804576 2.4951063702-4.6562839382 5.3251492085-5.2956150402.3614131558-.0837169052.720513538-.1302134779 1.0740002819-.1418076778z" stroke-width="2"></path>
  </g>
</svg>
